<?xml version="1.0" ?><!DOCTYPE svg  PUBLIC '-//W3C//DTD SVG 1.1//EN'  'http://www.w3.org/Graphics/SVG/1.1/DTD/svg11.dtd'><svg enable-background="new 0 0 32 32" version="1.1" viewBox="0 0 32 32" xml:space="preserve" xmlns="http://www.w3.org/2000/svg" xmlns:xlink="http://www.w3.org/1999/xlink"><g id="Desktop25"/><g id="Desktop24"/><g id="Desktop23"/><g id="Desktop22"/><g id="Desktop21"/><g id="Desktop20"/><g id="Desktop19"/><g id="Desktop18"/><g id="Desktop17"/><g id="Desktop16"/><g id="Desktop15"/><g id="Desktop14"/><g id="Desktop13"/><g id="Desktop12"><g><path d="M16,9c-0.5522,0-1-0.4478-1-1V4c0-0.5513-0.4487-1-1-1H6C5.4478,3,5,2.5522,5,2s0.4478-1,1-1h8    c1.6543,0,3,1.3457,3,3v4C17,8.5522,16.5522,9,16,9z" fill="#FFC10A"/></g><g><path d="M31,10v12c0,1.65-1.35,3-3,3H4c-1.65,0-3-1.35-3-3V10c0-1.65,1.35-3,3-3h24C29.65,7,31,8.35,31,10z" fill="#3F51B5"/></g><g><g><g><path d="M13.5,14L13.5,14c0.8284,0,1.5-0.6716,1.5-1.5v0c0-0.8284-0.6716-1.5-1.5-1.5h0      c-0.8284,0-1.5,0.6716-1.5,1.5v0C12,13.3284,12.6716,14,13.5,14z" fill="#2197F3"/></g><g><path d="M18.5,14L18.5,14c0.8284,0,1.5-0.6716,1.5-1.5v0c0-0.8284-0.6716-1.5-1.5-1.5h0      c-0.8284,0-1.5,0.6716-1.5,1.5v0C17,13.3284,17.6716,14,18.5,14z" fill="#2197F3"/></g><g><path d="M23.5,14L23.5,14c0.8284,0,1.5-0.6716,1.5-1.5v0c0-0.8284-0.6716-1.5-1.5-1.5h0      c-0.8284,0-1.5,0.6716-1.5,1.5v0C22,13.3284,22.6716,14,23.5,14z" fill="#2197F3"/></g><g><path d="M8.5,14L8.5,14c0.8284,0,1.5-0.6716,1.5-1.5v0c0-0.8284-0.6716-1.5-1.5-1.5h0      C7.6716,11,7,11.6716,7,12.5v0C7,13.3284,7.6716,14,8.5,14z" fill="#2197F3"/></g></g><g><g><path d="M13.5,18L13.5,18c0.8284,0,1.5-0.6716,1.5-1.5v0c0-0.8284-0.6716-1.5-1.5-1.5h0      c-0.8284,0-1.5,0.6716-1.5,1.5v0C12,17.3284,12.6716,18,13.5,18z" fill="#2197F3"/></g><g><path d="M18.5,18L18.5,18c0.8284,0,1.5-0.6716,1.5-1.5v0c0-0.8284-0.6716-1.5-1.5-1.5h0      c-0.8284,0-1.5,0.6716-1.5,1.5v0C17,17.3284,17.6716,18,18.5,18z" fill="#2197F3"/></g><g><path d="M23.5,18L23.5,18c0.8284,0,1.5-0.6716,1.5-1.5v0c0-0.8284-0.6716-1.5-1.5-1.5h0      c-0.8284,0-1.5,0.6716-1.5,1.5v0C22,17.3284,22.6716,18,23.5,18z" fill="#2197F3"/></g><g><path d="M8.5,18L8.5,18c0.8284,0,1.5-0.6716,1.5-1.5v0c0-0.8284-0.6716-1.5-1.5-1.5h0      C7.6716,15,7,15.6716,7,16.5v0C7,17.3284,7.6716,18,8.5,18z" fill="#2197F3"/></g></g></g><g><path d="M21,22H11c-0.5522,0-1-0.4473-1-1s0.4478-1,1-1h10c0.5522,0,1,0.4473,1,1S21.5522,22,21,22z" fill="#FFC10A"/></g></g><g id="Desktop11"/><g id="Desktop10"/><g id="Desktop09"/><g id="Desktop08"/><g id="Desktop07"/><g id="Desktop06"/><g id="Desktop05"/><g id="Desktop04"/><g id="Desktop03"/><g id="Desktop02"/><g id="Desktop01"/></svg>