<?xml version="1.0" encoding="UTF-8" standalone="no"?>
<svg
   xmlns:dc="http://purl.org/dc/elements/1.1/"
   xmlns:cc="http://creativecommons.org/ns#"
   xmlns:rdf="http://www.w3.org/1999/02/22-rdf-syntax-ns#"
   xmlns:svg="http://www.w3.org/2000/svg"
   xmlns="http://www.w3.org/2000/svg"
   xmlns:sodipodi="http://sodipodi.sourceforge.net/DTD/sodipodi-0.dtd"
   xmlns:inkscape="http://www.inkscape.org/namespaces/inkscape"
   enable-background="new 0 0 32 32"
   version="1.1"
   viewBox="0 0 640 320"
   xml:space="preserve"
   id="svg77"
   sodipodi:docname="social-github.svg"
   width="640"
   height="320"
   inkscape:version="0.92.3 (2405546, 2018-03-11)"
   inkscape:export-filename="C:\temp\typing\banners\social-github.png"
   inkscape:export-xdpi="96"
   inkscape:export-ydpi="96"><metadata
     id="metadata83"><rdf:RDF><cc:Work
         rdf:about=""><dc:format>image/svg+xml</dc:format><dc:type
           rdf:resource="http://purl.org/dc/dcmitype/StillImage" /><dc:title></dc:title></cc:Work></rdf:RDF></metadata><defs
     id="defs81" /><sodipodi:namedview
     pagecolor="#ffffff"
     bordercolor="#666666"
     borderopacity="1"
     objecttolerance="10"
     gridtolerance="10"
     guidetolerance="10"
     inkscape:pageopacity="0"
     inkscape:pageshadow="2"
     inkscape:window-width="1366"
     inkscape:window-height="705"
     id="namedview79"
     showgrid="false"
     inkscape:snap-text-baseline="false"
     inkscape:zoom="0.4609375"
     inkscape:cx="-115.76179"
     inkscape:cy="219.1451"
     inkscape:window-x="-8"
     inkscape:window-y="-8"
     inkscape:window-maximized="1"
     inkscape:current-layer="svg77" /><g
     id="Desktop25"
     transform="translate(0,288)" /><g
     id="Desktop24"
     transform="translate(0,288)" /><g
     id="Desktop23"
     transform="translate(0,288)" /><g
     id="Desktop22"
     transform="translate(0,288)" /><g
     id="Desktop21"
     transform="translate(0,288)" /><g
     id="Desktop20"
     transform="translate(0,288)" /><g
     id="Desktop19"
     transform="translate(0,288)" /><g
     id="Desktop18"
     transform="translate(0,288)" /><g
     id="Desktop17"
     transform="translate(0,288)" /><g
     id="Desktop16"
     transform="translate(0,288)" /><g
     id="Desktop15"
     transform="translate(0,288)" /><g
     id="Desktop14"
     transform="translate(0,288)" /><g
     id="Desktop13"
     transform="translate(0,288)" /><g
     id="Desktop12"
     transform="matrix(4.8361341,0,0,5.2300804,240.50792,53.803819)"><g
       id="g17"><path
         d="M 16,9 C 15.4478,9 15,8.5522 15,8 V 4 C 15,3.4487 14.5513,3 14,3 H 6 C 5.4478,3 5,2.5522 5,2 5,1.4478 5.4478,1 6,1 h 8 c 1.6543,0 3,1.3457 3,3 v 4 c 0,0.5522 -0.4478,1 -1,1 z"
         id="path15"
         inkscape:connector-curvature="0"
         style="fill:#ffc10a" /></g><g
       id="g21"><path
         d="m 31,10 v 12 c 0,1.65 -1.35,3 -3,3 H 4 C 2.35,25 1,23.65 1,22 V 10 C 1,8.35 2.35,7 4,7 h 24 c 1.65,0 3,1.35 3,3 z"
         id="path19"
         inkscape:connector-curvature="0"
         style="fill:#3f51b5" /></g><g
       id="g59"><g
         id="g39"><g
           id="g25"><path
             d="m 13.5,14 v 0 c 0.8284,0 1.5,-0.6716 1.5,-1.5 v 0 C 15,11.6716 14.3284,11 13.5,11 v 0 C 12.6716,11 12,11.6716 12,12.5 v 0 c 0,0.8284 0.6716,1.5 1.5,1.5 z"
             id="path23"
             inkscape:connector-curvature="0"
             style="fill:#2197f3" /></g><g
           id="g29"><path
             d="m 18.5,14 v 0 c 0.8284,0 1.5,-0.6716 1.5,-1.5 v 0 C 20,11.6716 19.3284,11 18.5,11 v 0 C 17.6716,11 17,11.6716 17,12.5 v 0 c 0,0.8284 0.6716,1.5 1.5,1.5 z"
             id="path27"
             inkscape:connector-curvature="0"
             style="fill:#2197f3" /></g><g
           id="g33"><path
             d="m 23.5,14 v 0 c 0.8284,0 1.5,-0.6716 1.5,-1.5 v 0 C 25,11.6716 24.3284,11 23.5,11 v 0 C 22.6716,11 22,11.6716 22,12.5 v 0 c 0,0.8284 0.6716,1.5 1.5,1.5 z"
             id="path31"
             inkscape:connector-curvature="0"
             style="fill:#2197f3" /></g><g
           id="g37"><path
             d="m 8.5,14 v 0 C 9.3284,14 10,13.3284 10,12.5 v 0 C 10,11.6716 9.3284,11 8.5,11 v 0 C 7.6716,11 7,11.6716 7,12.5 v 0 C 7,13.3284 7.6716,14 8.5,14 Z"
             id="path35"
             inkscape:connector-curvature="0"
             style="fill:#2197f3" /></g></g><g
         id="g57"><g
           id="g43"><path
             d="m 13.5,18 v 0 c 0.8284,0 1.5,-0.6716 1.5,-1.5 v 0 C 15,15.6716 14.3284,15 13.5,15 v 0 C 12.6716,15 12,15.6716 12,16.5 v 0 c 0,0.8284 0.6716,1.5 1.5,1.5 z"
             id="path41"
             inkscape:connector-curvature="0"
             style="fill:#2197f3" /></g><g
           id="g47"><path
             d="m 18.5,18 v 0 c 0.8284,0 1.5,-0.6716 1.5,-1.5 v 0 C 20,15.6716 19.3284,15 18.5,15 v 0 C 17.6716,15 17,15.6716 17,16.5 v 0 c 0,0.8284 0.6716,1.5 1.5,1.5 z"
             id="path45"
             inkscape:connector-curvature="0"
             style="fill:#2197f3" /></g><g
           id="g51"><path
             d="m 23.5,18 v 0 c 0.8284,0 1.5,-0.6716 1.5,-1.5 v 0 C 25,15.6716 24.3284,15 23.5,15 v 0 C 22.6716,15 22,15.6716 22,16.5 v 0 c 0,0.8284 0.6716,1.5 1.5,1.5 z"
             id="path49"
             inkscape:connector-curvature="0"
             style="fill:#2197f3" /></g><g
           id="g55"><path
             d="m 8.5,18 v 0 C 9.3284,18 10,17.3284 10,16.5 v 0 C 10,15.6716 9.3284,15 8.5,15 v 0 C 7.6716,15 7,15.6716 7,16.5 v 0 C 7,17.3284 7.6716,18 8.5,18 Z"
             id="path53"
             inkscape:connector-curvature="0"
             style="fill:#2197f3" /></g></g></g><g
       id="g63"><path
         d="M 21,22 H 11 c -0.5522,0 -1,-0.4473 -1,-1 0,-0.5527 0.4478,-1 1,-1 h 10 c 0.5522,0 1,0.4473 1,1 0,0.5527 -0.4478,1 -1,1 z"
         id="path61"
         inkscape:connector-curvature="0"
         style="fill:#ffc10a" /></g></g><g
     id="Desktop11"
     transform="translate(0,288)" /><g
     id="Desktop10"
     transform="translate(0,288)" /><g
     id="Desktop09"
     transform="translate(0,288)" /><g
     id="Desktop08"
     transform="translate(0,288)" /><g
     id="Desktop07"
     transform="translate(0,288)" /><g
     id="Desktop06"
     transform="translate(0,288)" /><g
     id="Desktop05"
     transform="translate(0,288)" /><g
     id="Desktop04"
     transform="translate(0,288)" /><g
     id="Desktop03"
     transform="translate(0,288)" /><g
     id="Desktop02"
     transform="translate(0,288)" /><g
     id="Desktop01"
     transform="translate(0,288)" /><text
     xml:space="preserve"
     style="font-style:normal;font-weight:normal;font-size:45.28011322px;line-height:1.25;font-family:sans-serif;letter-spacing:0px;word-spacing:0px;fill:#000000;fill-opacity:1;stroke:none;stroke-width:1.13200283"
     x="275.07718"
     y="169.80293"
     id="text892"
     transform="scale(0.68224599,1.465747)"><tspan
       sodipodi:role="line"
       id="tspan890"
       x="275.07718"
       y="169.80293"
       style="font-size:54.33613586px;stroke-width:1.13200283">Khmer Typing</tspan></text>
</svg>